<?xml version="1.0" encoding="UTF-8" standalone="no"?>
<svg
   xmlns:dc="http://purl.org/dc/elements/1.1/"
   xmlns:cc="http://creativecommons.org/ns#"
   xmlns:rdf="http://www.w3.org/1999/02/22-rdf-syntax-ns#"
   xmlns:svg="http://www.w3.org/2000/svg"
   xmlns="http://www.w3.org/2000/svg"
   style="overflow:visible"
   height="42.369801"
   width="116.260399"
   id="svg15"
   version="1.1"
   overflow="visible">
  <metadata
     id="metadata21">
    <rdf:RDF>
      <cc:Work
         rdf:about="">
        <dc:format>image/svg+xml</dc:format>
        <dc:type
           rdf:resource="http://purl.org/dc/dcmitype/StillImage" />
      </cc:Work>
    </rdf:RDF>
  </metadata>
  <defs
     id="defs19" />
  <svg
     id="svg13"
     version="1.1"
     clip-path="url(#clippath_idm139726747827008)"
     height="42.369801"
     width="116.260399">
    <defs
       id="defs5">
      <clipPath
         id="clippath_idm139726747827008">
        <path
           id="path2"
           d="M 0,0 H 88.2604 V 42.3698 H 0 V 0" />
      </clipPath>
    </defs>
    <svg
       id="svg11"
       version="1.1"
       y="0"
       x="0"
       height="79.695602"
       width="116.210098">
      <path
         style="fill:#ffffff;stroke:#ffffff;stroke-width:1"
         id="path7"
         stroke-linejoin="Round"
         d="m 82.9948,1.52588e-5 h 5.2656 V 42.3698 H 82.9948 Z M 0,40.6927 H 10.2076 C 9.20181,40.1567 8.51563,39.0843 8.51563,37.8489 L 8.51669,37.7657 H 2.05728 V 0.0156708 H 75.0573 V 37.7657 h -5.7731 c -0.114,1.5055 -1.2493,2.7199 -2.702,2.927 h 14.5897 v 1.6667 H 0 Z m 62.9971,-2.927 H 14.8206 l 10e-4,0.0832 c 0,1.2354 -0.6862,2.3078 -1.6919,2.8438 h 52.5694 c -1.4527,-0.2071 -2.5879,-1.4215 -2.702,-2.927 z M 11.6195,36.12 c -0.8399,0 -1.5208,0.6808 -1.5208,1.5208 0,0.8399 0.6809,1.5208 1.5208,1.5208 0.84,0 1.5209,-0.6809 1.5209,-1.5208 0,-0.84 -0.6808,-1.5208 -1.5209,-1.5208 z m 54.4376,-0.2834 c -0.84,0 -1.5208,0.6809 -1.5208,1.5209 0,0.8399 0.6809,1.5208 1.5208,1.5208 0.84,0 1.5209,-0.6809 1.5209,-1.5208 0,-0.84 -0.6809,-1.5209 -1.5209,-1.5209 z M 4.82803,1.68239 v 8.14578 h 2.125 V 1.68239 Z m 0,34.50001 h 2.125 v -7.4376 h -2.125 z m 2.125,-25.0209 h -2.125 v 16.25 h 2.125 z M 11.5519,1.68242 v 8.14575 h 2.125 V 1.68242 Z m 0,33.66658 h 2.125 v -6.6042 h -2.125 z m 2.125,-24.1875 h -2.125 v 16.25 h 2.125 z m 4.599,-9.47902 v 8.14569 h 2.125 V 1.68248 Z m 0,34.49992 h 2.125 v -7.4376 h -2.125 z m 2.125,-25.0209 h -2.125 v 16.25 h 2.125 z m 4.5989,-9.47905 v 8.14572 h 2.1251 V 1.68245 Z m 0,34.49995 h 2.1251 v -7.4376 h -2.1251 z m 2.1251,-25.0209 h -2.1251 v 16.25 h 2.1251 z m 4.5989,-9.47905 v 8.14572 h 2.125 V 1.68245 Z m 0,34.49995 h 2.125 v -7.4376 h -2.125 z m 2.125,-25.0209 h -2.125 v 16.25 h 2.125 z m 4.599,-9.47902 v 8.14569 h 2.125 V 1.68248 Z m 0,34.49992 h 2.125 v -7.4376 h -2.125 z m 2.125,-25.0209 h -2.125 v 16.25 h 2.125 z m 4.5989,-9.47905 v 8.14572 h 2.1251 V 1.68245 Z m 0,34.49995 h 2.1251 v -7.4376 h -2.1251 z m 2.1251,-25.0209 h -2.1251 v 16.25 h 2.1251 z m 4.5989,-9.47902 v 8.14569 h 2.1251 V 1.68248 Z m 0,34.49992 h 2.1251 v -7.4376 h -2.1251 z m 2.1251,-25.0209 h -2.1251 v 16.25 h 2.1251 z m 4.5989,-9.47905 v 8.14572 h 2.125 V 1.68245 Z m 0,34.49995 h 2.125 v -7.4376 h -2.125 z m 2.125,-25.0209 h -2.125 v 16.25 h 2.125 z m 4.5989,-9.47902 v 8.14569 h 2.125 V 1.68248 Z m 0,33.20822 h 2.125 v -6.1459 h -2.125 z m 2.125,-23.7292 h -2.125 v 16.25 h 2.125 z m 4.599,-9.47905 v 8.14572 h 2.125 V 1.68245 Z m 0,34.49995 h 2.125 v -7.4376 h -2.125 z m 2.125,-25.0209 h -2.125 v 16.25 h 2.125 z" />
      <!-- <path
         style="fill:#ff4081;fill-rule:nonzero;stroke:#ff4081;stroke-width:1"
         id="path9"
         stroke-linejoin="Round"
         d="m 59.5468,18.5599 -17.5,10.1037 v -5.562 h -24.25 v -9.0833 h 24.25 V 8.45631 Z" /> -->
    </svg>
  </svg>
</svg>
