<?xml version="1.0" encoding="UTF-8" standalone="no"?>
<svg
   xmlns:dc="http://purl.org/dc/elements/1.1/"
   xmlns:cc="http://creativecommons.org/ns#"
   xmlns:rdf="http://www.w3.org/1999/02/22-rdf-syntax-ns#"
   xmlns:svg="http://www.w3.org/2000/svg"
   xmlns="http://www.w3.org/2000/svg"
   style="overflow:visible"
   height="42.369801"
   width="116.203"
   id="svg15"
   version="1.1"
   overflow="visible">
  <metadata
     id="metadata21">
    <rdf:RDF>
      <cc:Work
         rdf:about="">
        <dc:format>image/svg+xml</dc:format>
        <dc:type
           rdf:resource="http://purl.org/dc/dcmitype/StillImage" />
      </cc:Work>
    </rdf:RDF>
  </metadata>
  <defs
     id="defs19" />
  <svg
     id="svg13"
     version="1.1"
     clip-path="url(#clippath_idm139669792409584)"
     height="42.369801"
     width="116.203">
    <defs
       id="defs5">
      <clipPath
         id="clippath_idm139669792409584">
        <path
           id="path2"
           d="M 0,0 H 116.203 V 42.3698 H 0 V 0" />
      </clipPath>
    </defs>
    <svg
       id="svg11"
       version="1.1"
       y="0"
       x="0"
       height="79.695602"
       width="116.124298">
      <path
         style="fill:#ffffff;stroke:#ffffff;stroke-width:1"
         id="path7"
         stroke-linejoin="Round"
         d="m 110.937,-1.52588e-5 h 5.266 V 42.3698 h -5.266 z M 27.9427,40.6927 h 35.6991 c -1.4527,-0.2071 -2.588,-1.4215 -2.702,-2.9271 H 12.7632 l 0.0011,0.0834 c 0,1.7718 -1.4116,3.2082 -3.15297,3.2082 -1.7414,0 -3.15302,-1.4364 -3.15302,-3.2082 L 6.45938,37.7656 H 0 V 0.0156403 H 73 V 37.7656 h -5.7731 c -0.114,1.5056 -1.2493,2.72 -2.7021,2.9271 h 44.5902 v 1.6667 H 27.9427 Z M 9.56226,36.1199 c -0.83994,0 -1.52085,0.681 -1.52085,1.5209 0,0.8399 0.68091,1.5208 1.52085,1.5208 0.83994,0 1.52084,-0.6809 1.52084,-1.5208 0,-0.8399 -0.6808,-1.5209 -1.52084,-1.5209 z M 63.9998,35.8366 c -0.84,0 -1.5208,0.6809 -1.5208,1.5208 0,0.84 0.6809,1.5209 1.5208,1.5209 0.8399,0 1.5208,-0.6809 1.5208,-1.5209 0,-0.8399 -0.6809,-1.5208 -1.5208,-1.5208 z M 2.77075,1.68236 v 8.14578 h 2.125 V 1.68236 Z m 0,34.50004 h 2.125 v -7.4376 h -2.125 z m 2.125,-25.0209 h -2.125 v 16.25 h 2.125 z M 9.49463,1.68239 V 9.82814 H 11.6196 V 1.68239 Z m 0,33.66661 H 11.6196 V 28.7448 H 9.49463 Z M 11.6196,11.1615 H 9.49463 v 16.25 h 2.12497 z m 4.599,-9.47902 v 8.14566 h 2.125 V 1.68248 Z m 0,34.49992 h 2.125 v -7.4376 h -2.125 z m 2.125,-25.0209 h -2.125 v 16.25 h 2.125 z m 4.5989,-9.47908 v 8.14572 h 2.1251 V 1.68242 Z m 0,34.49998 h 2.1251 v -7.4376 h -2.1251 z m 2.1251,-25.0209 h -2.1251 v 16.25 h 2.1251 z m 4.5989,-9.47908 v 8.14572 h 2.125 V 1.68242 Z m 0,34.49998 h 2.125 v -7.4376 h -2.125 z m 2.125,-25.0209 h -2.125 v 16.25 h 2.125 z m 4.5989,-9.47902 v 8.14566 h 2.1251 V 1.68248 Z m 0,34.49992 h 2.1251 v -7.4376 h -2.1251 z m 2.1251,-25.0209 h -2.1251 v 16.25 h 2.1251 z m 4.5989,-9.47908 v 8.14572 h 2.1251 V 1.68242 Z m 0,34.49998 h 2.1251 v -7.4376 h -2.1251 z m 2.1251,-25.0209 h -2.1251 v 16.25 h 2.1251 z m 4.5988,-9.47902 v 8.14566 h 2.1251 V 1.68248 Z m 0,34.49992 h 2.1251 v -7.4376 h -2.1251 z m 2.1251,-25.0209 h -2.1251 v 16.25 h 2.1251 z m 4.599,-9.47908 v 8.14572 h 2.125 V 1.68242 Z m 0,34.49998 h 2.125 v -7.4376 h -2.125 z m 2.125,-25.0209 h -2.125 v 16.25 h 2.125 z m 4.5989,-9.47902 v 8.14566 h 2.125 V 1.68248 Z m 0,33.20822 h 2.125 v -6.1459 h -2.125 z m 2.125,-23.7292 h -2.125 v 16.25 h 2.125 z m 4.599,-9.47908 v 8.14572 h 2.125 V 1.68242 Z m 0,34.49998 h 2.125 v -7.4376 h -2.125 z m 2.125,-25.0209 h -2.125 v 16.25 h 2.125 z" />
      <path
         style="fill:#ff4081;fill-rule:nonzero;stroke:#ff4081;stroke-width:1"
         id="path9"
         stroke-linejoin="Round"
         d="m 23.7396,18.5599 17.5,-10.10365 v 5.56195 h 24.25 v 9.0834 h -24.25 v 5.5619 z" />
    </svg>
  </svg>
</svg>
